<?xml version="1.0" encoding="UTF-8"?>
<svg xmlns="http://www.w3.org/2000/svg" xmlns:xlink="http://www.w3.org/1999/xlink" width="190px" height="60px" viewBox="0 0 189 60" version="1.1">
<g id="surface1">
<path style=" stroke:none;fill-rule:nonzero;fill:rgb(0%,19.607843%,5.882353%);fill-opacity:1;" d="M 140.796875 49.347656 L 180.21875 49.347656 L 176.667969 59.050781 L 131.832031 59.050781 L 134.261719 52.332031 Z M 171.34375 12.410156 L 189 12.410156 L 186.664062 19.125 L 149.484375 52.332031 L 149.484375 59.050781 L 131.832031 59.050781 L 134.261719 52.332031 L 171.34375 19.125 Z M 179.660156 22.109375 L 140.613281 22.109375 L 144.160156 12.410156 L 189 12.410156 L 186.664062 19.125 Z M 127.101562 55.496094 C 125.917969 56.183594 124.644531 56.808594 123.277344 57.371094 C 121.90625 57.875 120.414062 58.3125 118.796875 58.6875 C 117.242188 59.0625 115.5625 59.34375 113.757812 59.53125 C 112.015625 59.78125 110.214844 59.90625 108.347656 59.90625 L 108.347656 50.148438 C 110.398438 50.148438 112.421875 50.023438 114.414062 49.773438 C 116.402344 49.460938 118.332031 49.085938 120.195312 48.648438 C 122.0625 48.148438 123.835938 47.554688 125.515625 46.867188 C 127.195312 46.117188 128.75 45.332031 130.179688 44.519531 Z M 112.734375 11.125 C 116.777344 11.125 120.289062 11.71875 123.277344 12.90625 C 126.324219 14.097656 128.71875 15.753906 130.460938 17.878906 C 132.203125 20.007812 133.289062 22.570312 133.726562 25.570312 C 134.222656 28.574219 133.941406 31.886719 132.886719 35.515625 L 129.898438 35.609375 L 122.25 35.515625 C 122.933594 33.328125 123.277344 31.355469 123.277344 29.605469 C 123.339844 27.792969 123.027344 26.261719 122.34375 25.007812 C 121.660156 23.695312 120.539062 22.695312 118.984375 22.007812 C 117.429688 21.257812 115.34375 20.882812 112.734375 20.882812 L 111.800781 19.941406 L 111.800781 12.15625 Z M 91.554688 38.984375 L 91.554688 31.105469 L 131.671875 31.105469 L 132.886719 35.515625 L 131.953125 38.984375 Z M 112.734375 11.125 L 113.664062 12.0625 L 113.664062 19.941406 L 112.734375 20.882812 C 110.121094 20.882812 107.851562 21.257812 105.921875 22.007812 C 103.992188 22.695312 102.316406 23.695312 100.882812 25.007812 C 99.453125 26.261719 98.273438 27.792969 97.339844 29.605469 C 96.40625 31.355469 95.628906 33.328125 95.007812 35.515625 C 94.445312 37.703125 94.199219 39.707031 94.261719 41.519531 C 94.382812 43.269531 94.945312 44.800781 95.9375 46.117188 C 96.996094 47.367188 98.519531 48.367188 100.511719 49.117188 C 102.5625 49.804688 105.175781 50.148438 108.347656 50.148438 L 109.28125 51.085938 L 109.28125 58.96875 L 108.347656 59.90625 C 103.683594 59.90625 99.640625 59.25 96.21875 57.933594 C 92.796875 56.621094 90.09375 54.777344 88.101562 52.402344 C 86.113281 49.960938 84.835938 47.085938 84.277344 43.769531 C 83.78125 40.394531 84.089844 36.671875 85.210938 32.605469 C 86.082031 29.355469 87.386719 26.414062 89.128906 23.789062 C 90.871094 21.164062 92.953125 18.910156 95.378906 17.035156 C 97.804688 15.160156 100.480469 13.722656 103.402344 12.71875 C 106.386719 11.65625 109.5 11.125 112.734375 11.125 Z M 76.140625 55.214844 C 74.890625 55.902344 73.515625 56.558594 72.015625 57.183594 C 70.578125 57.746094 69.078125 58.25 67.515625 58.6875 C 65.941406 59.0625 64.34375 59.34375 62.734375 59.53125 C 61.109375 59.78125 59.515625 59.90625 57.953125 59.90625 L 57.953125 50.148438 C 59.640625 50.148438 61.359375 50.023438 63.109375 49.773438 C 64.933594 49.460938 66.746094 49.082031 68.546875 48.648438 C 70.359375 48.148438 72.078125 47.554688 73.703125 46.867188 C 75.390625 46.117188 76.953125 45.332031 78.390625 44.519531 Z M 61.046875 11.125 C 64.796875 11.125 68.078125 11.71875 70.890625 12.90625 C 73.703125 14.097656 75.953125 15.753906 77.640625 17.878906 C 79.390625 19.941406 80.546875 22.507812 81.109375 25.570312 C 81.671875 28.574219 81.609375 31.886719 80.921875 35.515625 L 70.140625 35.515625 C 70.578125 33.328125 70.765625 31.355469 70.703125 29.605469 C 70.703125 27.792969 70.328125 26.261719 69.578125 25.007812 C 68.890625 23.695312 67.859375 22.695312 66.484375 22.007812 C 65.171875 21.257812 63.359375 20.882812 61.046875 20.882812 L 60.109375 19.941406 L 60.109375 12.15625 Z M 42.582031 38.984375 L 42.582031 31.105469 L 79.140625 31.105469 L 80.921875 35.515625 L 80.171875 38.984375 Z M 61.046875 11.125 L 61.984375 12.0625 L 62.078125 19.941406 L 61.046875 20.882812 C 58.859375 20.882812 56.921875 21.257812 55.234375 22.007812 C 53.546875 22.695312 52.078125 23.695312 50.832031 25.007812 C 49.578125 26.261719 48.582031 27.792969 47.832031 29.605469 C 47.082031 31.355469 46.488281 33.328125 46.050781 35.515625 C 45.613281 37.703125 45.457031 39.707031 45.582031 41.519531 C 45.769531 43.269531 46.332031 44.800781 47.269531 46.117188 C 48.207031 47.367188 49.550781 48.367188 51.300781 49.117188 C 53.046875 49.804688 55.265625 50.148438 57.953125 50.148438 L 58.890625 51.085938 L 58.890625 58.96875 L 57.953125 59.90625 C 53.703125 59.90625 50.019531 59.28125 46.894531 58.027344 C 43.769531 56.714844 41.238281 54.902344 39.300781 52.589844 C 37.425781 50.273438 36.144531 47.492188 35.457031 44.238281 C 34.769531 40.988281 34.832031 37.390625 35.644531 33.453125 C 36.269531 30.074219 37.363281 27.042969 38.925781 24.351562 C 40.488281 21.601562 42.363281 19.253906 44.550781 17.316406 C 46.800781 15.378906 49.332031 13.878906 52.140625 12.8125 C 54.953125 11.6875 57.921875 11.125 61.046875 11.125 Z M 32.851562 55.300781 C 31.925781 55.855469 30.988281 56.386719 30.035156 56.894531 C 29.097656 57.332031 28.15625 57.707031 27.21875 58.019531 C 26.28125 58.332031 25.3125 58.582031 24.308594 58.769531 C 23.371094 58.957031 22.371094 59.050781 21.304688 59.050781 L 20.367188 58.113281 L 22.246094 50.238281 L 23.183594 49.300781 C 24.496094 49.300781 25.9375 48.957031 27.5 48.269531 C 29.128906 47.582031 30.910156 46.675781 32.851562 45.550781 Z M 21.304688 59.050781 C 19.304688 59.050781 17.488281 58.707031 15.863281 58.019531 C 14.296875 57.332031 12.921875 56.363281 11.734375 55.113281 C 10.542969 53.800781 9.636719 52.269531 9.011719 50.519531 C 8.382812 48.707031 8.070312 46.738281 8.070312 44.613281 L 8.070312 21.933594 L 0 21.933594 L 0 12.183594 L 8.070312 12.183594 L 10.886719 0 L 18.679688 0 L 18.679688 12.183594 L 32.851562 12.183594 L 32.851562 21.933594 L 18.679688 21.933594 L 18.679688 44.613281 C 18.679688 45.300781 18.773438 45.957031 18.960938 46.582031 C 19.210938 47.144531 19.523438 47.613281 19.898438 47.988281 C 20.273438 48.363281 20.742188 48.675781 21.304688 48.925781 C 21.871094 49.175781 22.496094 49.300781 23.183594 49.300781 Z M 21.304688 59.050781 "/>
</g>
</svg>
