<svg width="24" height="24" viewBox="0 0 24 24" xmlns="http://www.w3.org/2000/svg">
 <!-- Generator: Sketch 53.2 (72643) - https://sketchapp.com -->
 <title>Artboard</title>
 <desc>Created with Sketch.</desc>
 <defs>
  <linearGradient id="linearGradient-1" y2="99.2583404%" x2="50%" y1="0%" x1="50%">
   <stop offset="0%" stop-color="#2AABEE"/>
   <stop offset="100%" stop-color="#229ED9"/>
  </linearGradient>
 </defs>
 <g>
  <title>background</title>
  <rect fill="none" id="canvas_background" height="26" width="26" y="-1" x="-1"/>
 </g>
 <g>
  <title>Layer 1</title>
  <g fill-rule="evenodd" fill="none" id="Artboard">
   <circle stroke="null" r="11.658746" cy="12.115269" cx="12.006572" fill="url(#linearGradient-1)" id="Oval"/>
   <path stroke="null" fill="#FFFFFF" id="Path-3" d="m5.625237,11.991053c3.398761,-1.494592 5.665134,-2.479918 6.799119,-2.955979c3.237757,-1.359251 3.910536,-1.595367 4.349043,-1.603164c0.096446,-0.001715 0.312091,0.02241 0.451777,0.136813c0.117948,0.096599 0.1504,0.22709 0.16593,0.318677c0.015529,0.091586 0.034867,0.300223 0.019495,0.463245c-0.175455,1.860711 -0.934647,6.376165 -1.320881,8.460193c-0.16343,0.88183 -0.485229,1.177503 -0.796767,1.206439c-0.677045,0.062884 -1.191162,-0.45161 -1.846914,-0.885471c-1.026121,-0.678907 -1.605815,-1.101528 -2.601843,-1.764016c-1.151083,-0.765619 -0.404884,-1.186416 0.251115,-1.874117c0.171678,-0.179975 3.154754,-2.91861 3.212492,-3.167047c0.007221,-0.031071 0.013922,-0.14689 -0.054248,-0.208047c-0.06817,-0.061157 -0.168784,-0.040243 -0.241389,-0.023611c-0.102916,0.023576 -1.742158,1.117156 -4.917727,3.280739c-0.465293,0.322485 -0.886742,0.479611 -1.264345,0.471377c-0.416277,-0.009077 -1.217028,-0.237564 -1.812303,-0.432869c-0.73013,-0.239549 -1.310423,-0.366201 -1.259892,-0.773029c0.026319,-0.211902 0.315432,-0.428613 0.867338,-0.650133z"/>
  </g>
 </g>
</svg>
