<svg width="24" height="24" xmlns="http://www.w3.org/2000/svg">

 <g>
  <title>background</title>
  <rect fill="none" id="canvas_background" height="26" width="26" y="-1" x="-1"/>
 </g>
 <g>
  <title>Layer 1</title>
  <g stroke="null" id="svg_6">
   <path stroke="null" id="svg_1" fill="#0077FF" d="m0.16529,11.439701c0,-5.314561 0,-7.97183 1.639776,-9.623127c1.639787,-1.651285 4.278535,-1.651285 9.556053,-1.651285l1.157386,0c5.277448,0 7.916231,0 9.555947,1.651285c1.639834,1.651297 1.639834,4.308566 1.639834,9.623127l0,1.16551c0,5.31449 0,7.971794 -1.639834,9.62302c-1.639717,1.651344 -4.278499,1.651344 -9.555947,1.651344l-1.157386,0c-5.277519,0 -7.916266,0 -9.556053,-1.651344c-1.639776,-1.648736 -1.639776,-4.30604 -1.639776,-9.62302l0,-1.16551z"/>
   <path stroke="null" id="svg_2" fill="white" d="m10.589665,13.386834c1.021932,1.029081 1.021932,2.697619 0,3.7267l-1.778668,1.79114c-1.021932,1.0292 -2.678816,1.0292 -3.700748,0c-1.021932,-1.029081 -1.021932,-2.697619 0,-3.7267l1.778668,-1.79114c1.021932,-1.029081 2.678816,-1.029081 3.700748,0z" clip-rule="evenodd" fill-rule="evenodd"/>
   <path stroke="null" id="svg_3" fill="white" d="m5.110249,5.146392c1.021932,-1.029105 2.678816,-1.029105 3.700748,0l1.778668,1.79114c1.021932,1.029105 1.021932,2.697619 0,3.726724c-1.021932,1.029117 -2.678816,1.029117 -3.700748,0.000012l-1.778668,-1.791152c-1.021932,-1.029105 -1.021932,-2.697619 0,-3.726724z" clip-rule="evenodd" fill-rule="evenodd"/>
   <path stroke="null" id="svg_4" fill="white" d="m13.291854,13.386834c1.021909,-1.029081 2.678816,-1.029081 3.700725,0l1.778656,1.79114c1.022026,1.029081 1.022026,2.697619 0,3.7267c-1.021909,1.0292 -2.678816,1.0292 -3.700725,0l-1.778656,-1.79114c-1.021909,-1.029081 -1.021909,-2.697619 0,-3.7267z" clip-rule="evenodd" fill-rule="evenodd"/>
   <path stroke="null" id="svg_5" fill="#00D9ED" d="m18.771234,5.146392c1.022026,1.029105 1.022026,2.697619 0,3.726724l-1.778656,1.791152c-1.021909,1.029105 -2.678816,1.029105 -3.700725,-0.000012c-1.021909,-1.029105 -1.021909,-2.697619 0,-3.726724l1.778656,-1.79114c1.021909,-1.029105 2.678816,-1.029105 3.700725,0z" clip-rule="evenodd" fill-rule="evenodd"/>
  </g>
 </g>
</svg>
